<svg width="96" height="96" viewBox="0 0 96 96" xmlns="http://www.w3.org/2000/svg">
  <rect width="96" height="96" rx="22" fill="#0F766E"/>
  <circle cx="48" cy="38" r="14" fill="#F59E0B" opacity="0.15"/>
  <circle cx="48" cy="38" r="10" fill="#F59E0B" opacity="0.2"/>
  <line x1="48" y1="28" x2="38" y2="20" stroke="#9FE1CB" stroke-width="1.5" stroke-linecap="round"/>
  <line x1="48" y1="28" x2="55" y2="19" stroke="#9FE1CB" stroke-width="1.5" stroke-linecap="round"/>
  <line x1="38" y1="38" x2="26" y2="34" stroke="#9FE1CB" stroke-width="1.5" stroke-linecap="round"/>
  <line x1="38" y1="38" x2="28" y2="44" stroke="#9FE1CB" stroke-width="1.5" stroke-linecap="round"/>
  <line x1="58" y1="38" x2="70" y2="34" stroke="#9FE1CB" stroke-width="1.5" stroke-linecap="round"/>
  <line x1="58" y1="38" x2="68" y2="44" stroke="#9FE1CB" stroke-width="1.5" stroke-linecap="round"/>
  <line x1="48" y1="48" x2="42" y2="58" stroke="#9FE1CB" stroke-width="1.5" stroke-linecap="round"/>
  <line x1="48" y1="48" x2="54" y2="58" stroke="#9FE1CB" stroke-width="1.5" stroke-linecap="round"/>
  <circle cx="48" cy="28" r="3" fill="white"/>
  <circle cx="38" cy="38" r="3" fill="white"/>
  <circle cx="58" cy="38" r="3" fill="white"/>
  <circle cx="48" cy="48" r="3" fill="white"/>
  <circle cx="38" cy="20" r="2.5" fill="#9FE1CB"/>
  <circle cx="55" cy="19" r="2.5" fill="#9FE1CB"/>
  <circle cx="26" cy="34" r="2.5" fill="#9FE1CB"/>
  <circle cx="28" cy="44" r="2.5" fill="#9FE1CB"/>
  <circle cx="70" cy="34" r="2.5" fill="#9FE1CB"/>
  <circle cx="68" cy="44" r="2.5" fill="#9FE1CB"/>
  <circle cx="42" cy="58" r="2.5" fill="#9FE1CB"/>
  <circle cx="54" cy="58" r="2.5" fill="#9FE1CB"/>
  <circle cx="48" cy="38" r="5" fill="#F59E0B"/>
</svg>
